<svg aria-hidden="true" style="width:0;height:0;position:absolute;overflow:hidden" xmlns="http://www.w3.org/2000/svg"><defs><symbol id="icon-close" viewBox="0 0 32 32"><path stroke-width="2.133" d="m8.533 8.533 14.933 14.933M8.533 23.467 23.466 8.534"/></symbol><symbol id="icon-film" viewBox="0 0 32 32"><path fill="none" stroke="#fff" style="stroke:var(--color1,#fff)" stroke-linejoin="round" stroke-linecap="round" stroke-width="2.667" d="M26.427 3.606H5.574c-1.605 0-2.907 1.239-2.907 2.768V26.23c0 1.529 1.301 2.768 2.907 2.768h20.853c1.605 0 2.907-1.239 2.907-2.768V6.374c0-1.529-1.301-2.768-2.907-2.768zM9.333 3.606v25.391M22.667 3.606v25.391M2.667 16.301h26.667M2.667 9.954h6.667M2.667 22.649h6.667M22.667 22.649h6.667M22.667 9.954h6.667"/></symbol><symbol id="icon-heart" viewBox="0 0 34 32"><path d="m17.231 31.705-2.412-2.412C5.859 21.367.001 16.025.001 9.478.001 4.136 4.136.001 9.478.001c2.929 0 5.858 1.378 7.754 3.618 1.895-2.24 4.825-3.618 7.754-3.618 5.342 0 9.477 4.135 9.477 9.477 0 6.548-5.858 11.889-14.818 19.815l-2.412 2.412z"/></symbol><symbol id="icon-search-2" viewBox="0 0 32 32"><path fill="none" stroke="#fff" style="stroke:var(--color1,#fff)" stroke-linejoin="round" stroke-linecap="round" stroke-width="2.667" d="M14.667 25.333c5.891 0 10.667-4.776 10.667-10.667S20.558 3.999 14.667 3.999 4 8.775 4 14.666s4.776 10.667 10.667 10.667zM28 28.001l-5.8-5.8"/></symbol><symbol id="icon-arrow-left" viewBox="0 0 32 32"><path d="M25.333 16H6.666M16 25.333 6.667 16 16 6.667"/></symbol><symbol id="icon-moon" viewBox="0 0 32 32"><path fill="#334d5c" style="fill:var(--color1,#334d5c)" d="M16 0C7.163 0 0 7.163 0 16c0 8.836 7.164 15.999 16 15.999S32 24.836 32 16c0-8.837-7.164-16-16-16z"/><path fill="#f2c900" style="fill:var(--color2,#f2c900)" d="M20.792 5.21a11.767 11.767 0 0 1 1.014 4.792c0 6.519-5.285 11.804-11.804 11.804a11.77 11.77 0 0 1-4.792-1.014c1.837 4.131 5.977 7.012 10.79 7.012 6.519 0 11.804-5.285 11.804-11.804 0-4.813-2.881-8.953-7.012-10.79z"/><path fill="#dbbb00" style="fill:var(--color3,#dbbb00)" d="M10.002 21.806a11.77 11.77 0 0 1-4.792-1.014c1.837 4.131 5.977 7.012 10.79 7.012 6.519 0 11.804-5.285 11.804-11.804 0 0-11.283 5.806-17.802 5.806zM15.262 12.168l-1.738-.061-.546-1.598-.546 1.598-1.738.061 1.4.977-.528 1.707 1.411-1.066 1.411 1.066-.528-1.707z"/><path fill="#f2c900" style="fill:var(--color2,#f2c900)" d="m13.533 12.561.299-1.136-.946.696-1.027-.634.409 1.113-.96.782 1.224-.046.408 1.155.374-1.18 1.186-.03z"/><path fill="#dbbb00" style="fill:var(--color3,#dbbb00)" d="m6.548 14.815-1.25-.044-.393-1.15-.393 1.15-1.25.044 1.008.703-.38 1.229 1.016-.767 1.016.767-.38-1.229z"/><path fill="#f2c900" style="fill:var(--color2,#f2c900)" d="m5.303 15.097.215-.817-.681.501-.739-.457.294.801-.691.562.881-.033.293.831.269-.849.853-.021z"/><path fill="#dbbb00" style="fill:var(--color3,#dbbb00)" d="m17.971 4.424-1.501-.053-.471-1.38-.472 1.38-1.501.053 1.209.844-.456 1.475 1.219-.92 1.219.92-.456-1.475z"/><path fill="#f2c900" style="fill:var(--color2,#f2c900)" d="m16.477 4.763.259-.981-.817.601-.887-.548.353.962-.829.675 1.058-.04.352.998.323-1.019 1.024-.026z"/></symbol><symbol id="icon-sun" viewBox="0 0 32 32"><path fill="#f5c525" style="fill:var(--color1,#f5c525)" d="m32 16-3.37 2.884 1.788 4.06-4.29 1.131-.151 4.434-4.357-.836-2.06 3.929-3.56-2.65-3.56 2.65-2.06-3.929-4.357.836-.151-4.434-4.29-1.131 1.788-4.06L0 16l3.37-2.884-1.788-4.06 4.29-1.131.151-4.434 4.357.836L12.44.398 16 3.048l3.56-2.65 2.06 3.929 4.357-.836.151 4.434 4.29 1.131-1.788 4.06z"/><path fill="#f8a805" style="fill:var(--color2,#f8a805)" d="M26.667 16c0 5.891-4.776 10.667-10.667 10.667S5.333 21.891 5.333 16 10.109 5.333 16 5.333 26.667 10.109 26.667 16z"/></symbol></defs></svg>