<svg aria-hidden="true" style="position: absolute; width: 0; height: 0; overflow: hidden;" version="1.1" xmlns="http://www.w3.org/2000/svg" xmlns:xlink="http://www.w3.org/1999/xlink">
<defs>
<symbol id="icon-close" viewBox="0 0 32 32">
<path stroke-linejoin="miter" stroke-linecap="butt" stroke-miterlimit="4" stroke-width="2.1333" d="M8.533 8.533l14.933 14.933"></path>
<path stroke-linejoin="miter" stroke-linecap="butt" stroke-miterlimit="4" stroke-width="2.1333" d="M8.533 23.467l14.933-14.933"></path>
</symbol>
<symbol id="icon-film" viewBox="0 0 32 32">
<path fill="none" stroke="#fff" style="stroke: var(--color1, #fff)" stroke-linejoin="round" stroke-linecap="round" stroke-miterlimit="4" stroke-width="2.6667" d="M26.427 3.606h-20.853c-1.605 0-2.907 1.239-2.907 2.768v19.856c0 1.529 1.301 2.768 2.907 2.768h20.853c1.605 0 2.907-1.239 2.907-2.768v-19.856c0-1.529-1.301-2.768-2.907-2.768z"></path>
<path fill="none" stroke="#fff" style="stroke: var(--color1, #fff)" stroke-linejoin="round" stroke-linecap="round" stroke-miterlimit="4" stroke-width="2.6667" d="M9.333 3.606v25.391"></path>
<path fill="none" stroke="#fff" style="stroke: var(--color1, #fff)" stroke-linejoin="round" stroke-linecap="round" stroke-miterlimit="4" stroke-width="2.6667" d="M22.667 3.606v25.391"></path>
<path fill="none" stroke="#fff" style="stroke: var(--color1, #fff)" stroke-linejoin="round" stroke-linecap="round" stroke-miterlimit="4" stroke-width="2.6667" d="M2.667 16.301h26.667"></path>
<path fill="none" stroke="#fff" style="stroke: var(--color1, #fff)" stroke-linejoin="round" stroke-linecap="round" stroke-miterlimit="4" stroke-width="2.6667" d="M2.667 9.954h6.667"></path>
<path fill="none" stroke="#fff" style="stroke: var(--color1, #fff)" stroke-linejoin="round" stroke-linecap="round" stroke-miterlimit="4" stroke-width="2.6667" d="M2.667 22.649h6.667"></path>
<path fill="none" stroke="#fff" style="stroke: var(--color1, #fff)" stroke-linejoin="round" stroke-linecap="round" stroke-miterlimit="4" stroke-width="2.6667" d="M22.667 22.649h6.667"></path>
<path fill="none" stroke="#fff" style="stroke: var(--color1, #fff)" stroke-linejoin="round" stroke-linecap="round" stroke-miterlimit="4" stroke-width="2.6667" d="M22.667 9.954h6.667"></path>
</symbol>
<symbol id="icon-heart" viewBox="0 0 34 32">
<path  d="M17.231 31.705l-2.412-2.412c-8.96-7.926-14.818-13.268-14.818-19.815 0-5.342 4.135-9.477 9.477-9.477 2.929 0 5.858 1.378 7.754 3.618 1.895-2.24 4.825-3.618 7.754-3.618 5.342 0 9.477 4.135 9.477 9.477 0 6.548-5.858 11.889-14.818 19.815l-2.412 2.412z"></path>
</symbol>
<symbol id="icon-search-2" viewBox="0 0 32 32">
<path fill="none" stroke="#fff" style="stroke: var(--color1, #fff)" stroke-linejoin="round" stroke-linecap="round" stroke-miterlimit="4" stroke-width="2.6667" d="M14.667 25.333c5.891 0 10.667-4.776 10.667-10.667s-4.776-10.667-10.667-10.667c-5.891 0-10.667 4.776-10.667 10.667s4.776 10.667 10.667 10.667z"></path>
<path fill="none" stroke="#fff" style="stroke: var(--color1, #fff)" stroke-linejoin="round" stroke-linecap="round" stroke-miterlimit="4" stroke-width="2.6667" d="M28 28.001l-5.8-5.8"></path>
</symbol>
<symbol id="icon-arrow-left" viewBox="0 0 32 32">
<path  d="M25.333 16h-18.667"></path>
<path d="M16 25.333l-9.333-9.333 9.333-9.333"></path>
</symbol>
<symbol id="icon-moon" viewBox="0 0 32 32">
<path fill="#334d5c" style="fill: var(--color1, #334d5c)" d="M16 0c-8.837 0-16 7.163-16 16 0 8.836 7.164 15.999 16 15.999s16-7.163 16-15.999c0-8.837-7.164-16-16-16z"></path>
<path fill="#f2c900" style="fill: var(--color2, #f2c900)" d="M20.792 5.21c0.651 1.464 1.014 3.086 1.014 4.792 0 6.519-5.285 11.804-11.804 11.804-1.706 0-3.327-0.363-4.792-1.014 1.837 4.131 5.977 7.012 10.79 7.012 6.519 0 11.804-5.285 11.804-11.804 0-4.813-2.881-8.953-7.012-10.79z"></path>
<path fill="#dbbb00" style="fill: var(--color3, #dbbb00)" d="M10.002 21.806c-1.706 0-3.327-0.363-4.792-1.014 1.837 4.131 5.977 7.012 10.79 7.012 6.519 0 11.804-5.285 11.804-11.804 0 0-11.283 5.806-17.802 5.806z"></path>
<path fill="#dbbb00" style="fill: var(--color3, #dbbb00)" d="M15.262 12.168l-1.738-0.061-0.546-1.598-0.546 1.598-1.738 0.061 1.4 0.977-0.528 1.707 1.411-1.066 1.411 1.066-0.528-1.707z"></path>
<path fill="#f2c900" style="fill: var(--color2, #f2c900)" d="M13.533 12.561l0.299-1.136-0.946 0.696-1.027-0.634 0.409 1.113-0.96 0.782 1.224-0.046 0.408 1.155 0.374-1.18 1.186-0.030z"></path>
<path fill="#dbbb00" style="fill: var(--color3, #dbbb00)" d="M6.548 14.815l-1.25-0.044-0.393-1.15-0.393 1.15-1.25 0.044 1.008 0.703-0.38 1.229 1.016-0.767 1.016 0.767-0.38-1.229z"></path>
<path fill="#f2c900" style="fill: var(--color2, #f2c900)" d="M5.303 15.097l0.215-0.817-0.681 0.501-0.739-0.457 0.294 0.801-0.691 0.562 0.881-0.033 0.293 0.831 0.269-0.849 0.853-0.021z"></path>
<path fill="#dbbb00" style="fill: var(--color3, #dbbb00)" d="M17.971 4.424l-1.501-0.053-0.471-1.38-0.472 1.38-1.501 0.053 1.209 0.844-0.456 1.475 1.219-0.92 1.219 0.92-0.456-1.475z"></path>
<path fill="#f2c900" style="fill: var(--color2, #f2c900)" d="M16.477 4.763l0.259-0.981-0.817 0.601-0.887-0.548 0.353 0.962-0.829 0.675 1.058-0.040 0.352 0.998 0.323-1.019 1.024-0.026z"></path>
</symbol>
<symbol id="icon-sun" viewBox="0 0 32 32">
<path fill="#f5c525" style="fill: var(--color1, #f5c525)" d="M32 16l-3.37 2.884 1.788 4.060-4.29 1.131-0.151 4.434-4.357-0.836-2.060 3.929-3.56-2.65-3.56 2.65-2.060-3.929-4.357 0.836-0.151-4.434-4.29-1.131 1.788-4.060-3.37-2.884 3.37-2.884-1.788-4.060 4.29-1.131 0.151-4.434 4.357 0.836 2.060-3.929 3.56 2.65 3.56-2.65 2.060 3.929 4.357-0.836 0.151 4.434 4.29 1.131-1.788 4.060z"></path>
<path fill="#f8a805" style="fill: var(--color2, #f8a805)" d="M26.667 16c0 5.891-4.776 10.667-10.667 10.667s-10.667-4.776-10.667-10.667c0-5.891 4.776-10.667 10.667-10.667s10.667 4.776 10.667 10.667z"></path>
</symbol>
</symbol>
</defs>
</svg>
